PathFileType	4	(X/Y/Z)	12_2_94_p0_0-237.trc
DataRate	CameraRate	NumFrames	NumMarkers	Units	OrigDataRate	OrigDataStartFrame	OrigNumFrames
59.0	59.0	5	27	m	59.0	0	238
Frame#	Time	RHip			RKnee			RAnkle			RBigToe			RSmallToe			RHeel			LHip			LKnee			LAnkle			LBigToe			LSmallToe			LHeel			Neck			Head			Nose			RShoulder			RElbow			RWrist			RThumb			RIndex			RPinky			LShoulder			LElbow			LWrist			LThumb			LIndex			LPinky			
		X1	Y1	Z1	X2	Y2	Z2	X3	Y3	Z3	X4	Y4	Z4	X5	Y5	Z5	X6	Y6	Z6	X7	Y7	Z7	X8	Y8	Z8	X9	Y9	Z9	X10	Y10	Z10	X11	Y11	Z11	X12	Y12	Z12	X13	Y13	Z13	X14	Y14	Z14	X15	Y15	Z15	X16	Y16	Z16	X17	Y17	Z17	X18	Y18	Z18	X19	Y19	Z19	X20	Y20	Z20	X21	Y21	Z21	X22	Y22	Z22	X23	Y23	Z23	X24	Y24	Z24	X25	Y25	Z25	X26	Y26	Z26	X27	Y27	Z27	
0	0.0	0.42097375265276804	0.5380774931225799	1.104087121431084	0.4599342589464085	0.5374163733091403	1.5199526579080311	0.49506748650337823	0.5869367234279823	1.9401879596603828	0.47627542422825353	0.375480726949469	1.9328278759279856	0.5394584980538454	0.3950604559327346	1.9124839217134724	0.47671835644576166	0.6342313127250634	2.007199034963983	0.21802886362026472	0.526221437188317	1.1259459756743173	0.26187677931844705	0.5321985240406115	1.5435335479212693	0.3058394738445213	0.5566122452950063	1.941203707271047	0.3108116425308956	0.38725080342448304	1.9436415254841508	0.2519875095873922	0.40658383656262687	1.9303680744287977	0.3226921498650429	0.6111238514008142	2.006622770992165	0.2820994870853025	0.5498326448036382	0.5321787866778986	0.2795359915358315	0.5195369473389571	0.2818163133144243	0.27598639536367137	0.45327923834917533	0.387833183576143	0.45140441298258294	0.5626984228482786	0.6292751334366705	0.5164932237857102	0.4681787688143727	0.8418674541873516	0.3792776822873014	0.38744225651883707	0.9890954612934008	0.2862967159122195	0.3493153281931657	1.02441176520254	0.28121958771593164	0.3323117227204174	1.037435492091152	0.29561445086251475	0.3407609066961737	1.06619841173692	0.13375616266112345	0.5558630619053911	0.6387563987163937	0.11150002028765225	0.493578998636243	0.879386988641734	0.25162250003624503	0.3792047603256221	0.9841776902777275	0.3213198364933698	0.32727315687013536	1.0130436955619524	0.33468894491967505	0.32623357279843584	1.0366927803518369	0.3113086141583959	0.3508239993405394	1.0563619369121793
1	0.01694915254237288	0.4221715198681013	0.5390490438037142	1.109197922731715	0.4619496595546873	0.5366647975182478	1.528671377846487	0.5009225395212634	0.5700598348745357	1.9388154216229512	0.47612481326931083	0.37556211920635124	1.9330303273912368	0.5445814923838884	0.40473752855361056	1.9238040280877218	0.47809605879032324	0.6349067843775822	2.0128185793964377	0.21806631821594286	0.5260839750902582	1.1261687110817677	0.2618036095590519	0.5322018077702781	1.5437841726533648	0.3066931687323462	0.5543908977359094	1.9445834560255781	0.3109023561817925	0.387711621681727	1.9439188629402995	0.24770862142816538	0.4199510978295567	1.9401548174968262	0.32695993706637916	0.5948905461621187	1.9951147328226304	0.28158762049078834	0.5505559188798266	0.5287556312401884	0.2792477100358193	0.5189091613455767	0.28204387441984746	0.2759340885441017	0.45315526230762215	0.38784814181966254	0.4514017619176031	0.5627248268475041	0.6292703820839722	0.5134933196390549	0.4825424385513568	0.846576440051515	0.3789452856796495	0.40403324985504635	0.9910233230495941	0.27916579874928005	0.335475871676615	1.020563581256519	0.2809776546911901	0.33286438781691496	1.037244407761599	0.29465719753300734	0.34126437253951397	1.0625893317262263	0.13381955913227336	0.5556682991781725	0.6387164254414679	0.1116292572769722	0.4926889067029472	0.8831478290890054	0.2552154451785066	0.38087574647114864	0.9880982397087167	0.3242067898668949	0.3381351052082191	1.0197554603631909	0.3344635865597202	0.32626860040078715	1.037008302382969	0.31120329612972536	0.3507310589525968	1.056661085116395
2	0.03389830508474576	0.42107674679131235	0.5380317292584988	1.104324124792705	0.4598747032752911	0.5371106130618555	1.5198867580609272	0.5010698705554928	0.570483970894624	1.938806291557091	0.4761655896337167	0.37552701654832227	1.9329477250725364	0.543770973223204	0.40685421854224035	1.9201139373811231	0.47850531553769987	0.6360653713401446	2.013411766825027	0.21807049000172224	0.5260230231239346	1.126131632053117	0.2613274920331364	0.532258271866484	1.548041655427061	0.30589480956066406	0.5565166258660057	1.9413508290288886	0.3108904447364419	0.38748544653076006	1.943719091958668	0.25199107706504664	0.40664506169012166	1.9302409148943664	0.32693573241484297	0.5951695384022127	1.9955013394376002	0.2816107970381249	0.5505711269605433	0.5287236274389858	0.2793121091235777	0.5189535732595868	0.2819770712790104	0.2759557442886211	0.4531859878229247	0.38781792868947607	0.45140818068205557	0.5627605050461956	0.6292696742379101	0.5135078547520098	0.4825836918160172	0.8464713824583089	0.3789320018855098	0.40413602326409653	0.991048208136845	0.27912547871325005	0.3353880887827939	1.0204613664544497	0.28088341644776027	0.33316822741236357	1.0372363963212767	0.2951970253367425	0.34366487796980505	1.0673939980658884	0.13379680127555174	0.5557663757544609	0.6387235781673638	0.11155225623312727	0.49288872662502603	0.8832355826634021	0.25091194716832443	0.39365712114272927	0.9931318158383349	0.3243478306880093	0.33829433542193005	1.019776245659769	0.33470211031547437	0.3262944110884923	1.0371448592151493	0.3110781804667396	0.3504342291334707	1.0608232962187434
3	0.05084745762711865	0.4221599878031075	0.5388822656333567	1.1087885083895344	0.4593318080811035	0.5371909171843352	1.5244670742383373	0.5011283042935547	0.5704741219498564	1.9388059787275844	0.4762596764096411	0.37595541891411177	1.9331087436516576	0.5438577558068017	0.4070082788554741	1.9202153413565028	0.4833902632354548	0.6506893769728448	2.0221576236535763	0.219038131818158	0.5270215405814705	1.1306153731156847	0.25698796459466716	0.5298505345441425	1.5474514850885586	0.3060175092294156	0.5566236923090934	1.9412734403982383	0.31099900684007936	0.3874569671566114	1.9437760629293388	0.24861829802940064	0.41789111285859193	1.9435744590766344	0.32705400407859153	0.5950386339359061	1.995529197209782	0.28157738286336	0.5504539921838781	0.5287143046069455	0.2793557001080409	0.5191084502636023	0.2820062607996654	0.27576689240436575	0.45357691447509957	0.3849527368314123	0.45140648142212003	0.5627333861952756	0.6293017694724627	0.5133352630657302	0.4827292394917294	0.8467573521005483	0.37498863975267616	0.4173831396904713	0.9961857236466698	0.28335892777890587	0.3371839420975102	1.0201956648878179	0.2809559241947582	0.3335980251291538	1.0373854515259266	0.29518041810719203	0.34364472475260077	1.0674711401778387	0.13381115089980483	0.5555407049247484	0.6387545757490927	0.11161853181030577	0.49302575103553303	0.8794995845472701	0.2501862744058866	0.39480751539482917	0.9898875443294116	0.3170830839082173	0.32682640072657176	1.0159660913919242	0.3345643964860917	0.3265606021182625	1.0374941574201717	0.31114308726716994	0.3507896429543124	1.0609938879630256
4	0.06779661016949153	0.4209491269296166	0.5377271839464852	1.107906721267963	0.45929286701043665	0.5371506866768753	1.5245269302969062	0.4975311969786988	0.5861195854931814	1.94976759149955	0.4762006188019863	0.37591450955827754	1.933134741679903	0.5438458046688569	0.4072360753782959	1.9203544887328745	0.48333758327490145	0.6505683701492001	2.0221057381204175	0.21901564164743278	0.5271241847720675	1.1306529752533387	0.2569138047466111	0.5298912293861903	1.5474394069271953	0.3059927623571523	0.5567119964298283	1.9412874727518115	0.3109330654216967	0.3873526656454811	1.943786537902372	0.2486097718234733	0.4179217534723522	1.9436492407597243	0.3270053665738283	0.5949801971453434	1.9956514305651785	0.2815306209133743	0.550469166662228	0.5286927429476369	0.2793092733495605	0.5190201611861562	0.28210326607264236	0.27595016961877533	0.4532276149240079	0.3877663126188435	0.45140669070576217	0.562671694205893	0.6293113461282285	0.5102285342920384	0.49696206150306227	0.8549542250943846	0.374852255956488	0.4027757204773772	0.9912126687960355	0.28004856846433657	0.33497302819698166	1.0251721771192894	0.28123078441673544	0.33353151794343217	1.0377586220563688	0.2965805670555009	0.34002728784503566	1.0735771731914343	0.138454827331415	0.542872333749715	0.6356526877894759	0.11177194505132493	0.493040828024175	0.8756938927191162	0.2551833172966365	0.3807947212744781	0.9841391599198602	0.32555988079866893	0.3419751944205212	1.0260913356983306	0.33087897905295865	0.338269587908387	1.0420807594585886	0.31599463660311244	0.3540288716475209	1.0650542436921173
